<svg xmlns="http://www.w3.org/2000/svg" viewBox="0 0 1000 1000"><path d="M500 262.4c125.2 0 231.3 57.1 298.1 105 79.2 56.8 120 111.6 130.6 132.6-10.6 20.9-51.3 75.8-130.6 132.6-66.9 47.9-172.9 105-298.1 105-125.2 0-231.2-57.1-298.1-105-79.3-56.8-120-111.7-130.6-132.6 10.6-20.9 51.3-75.8 130.6-132.6 66.8-47.9 172.9-105 298.1-105m0-59.4C229.4 203 10 440.6 10 500s219.4 297 490 297 490-237.6 490-297c0-59.4-219.4-297-490-297zm0 118.8c-98.4 0-178.2 79.8-178.2 178.2 0 98.4 79.8 178.2 178.2 178.2 98.4 0 178.2-79.8 178.2-178.2 0-98.4-79.8-178.2-178.2-178.2zM452 500c-41.6 0-75.4-33.8-75.4-75.4 0-41.6 33.8-75.4 75.4-75.4s75.4 33.8 75.4 75.4c0 41.6-33.7 75.4-75.4 75.4z"/></svg>